<svg width="12" height="12" viewBox="0 0 12 12" fill="none" xmlns="http://www.w3.org/2000/svg">
<path d="M10.8992 1.05095C10.5087 0.660497 9.87567 0.660459 9.48517 1.05087L5.94921 4.58599L2.41421 1.05099C2.02375 0.660528 1.39068 0.660529 1.00021 1.05099C0.609747 1.44146 0.609748 2.07453 1.00021 2.46499L4.53521 5.99999L1.00021 9.535C0.609747 9.92546 0.609747 10.5585 1.00021 10.949C1.39068 11.3395 2.02375 11.3395 2.41421 10.949L5.94921 7.41399L9.48517 10.9491C9.87567 11.3395 10.5087 11.3395 10.8992 10.949C11.2897 10.5585 11.2897 9.92544 10.8992 9.53495L7.36421 5.99999L10.8992 2.46504C11.2897 2.07455 11.2897 1.44144 10.8992 1.05095Z" fill="#7158E2"/>
</svg>
