<?xml version="1.0" encoding="iso-8859-1"?>
<!-- Generator: Adobe Illustrator 19.0.0, SVG Export Plug-In . SVG Version: 6.00 Build 0)  -->
<svg version="1.1" id="Capa_1" xmlns="http://www.w3.org/2000/svg" xmlns:xlink="http://www.w3.org/1999/xlink" x="0px" y="0px"
	 viewBox="0 0 512 512" style="enable-background:new 0 0 512 512;" xml:space="preserve" fill="#b6c4ec">
<g>
	<g>
		<path d="M149.239,16.552V112H53.791v33.103h112c9.142,0,16.552-7.41,16.552-16.552v-112H149.239z"/>
	</g>
</g>
<g>
	<g>
		<path d="M355.584,0H165.791c-4.392,0-8.601,1.743-11.702,4.85l-112,112c-3.106,3.101-4.85,7.316-4.85,11.702v275.862
			c0,9.142,7.41,16.552,16.552,16.552h158.345c9.142,0,16.552-7.41,16.552-16.552c0-9.142-7.41-16.552-16.552-16.552H70.342V135.404
			L172.643,33.103h166.389v214.621c0,9.137,7.41,16.552,16.552,16.552c9.142,0,16.552-7.41,16.552-16.552V16.552
			C372.135,7.41,364.726,0,355.584,0z"/>
	</g>
</g>
<g>
	<g>
		<path d="M273.929,183.172H135.446c-9.142,0-16.552,7.41-16.552,16.552c0,9.142,7.41,16.552,16.552,16.552h138.483
			c9.148,0,16.552-7.41,16.552-16.552C290.48,190.582,283.071,183.172,273.929,183.172z"/>
	</g>
</g>
<g>
	<g>
		<path d="M273.929,249.379H135.446c-9.142,0-16.552,7.41-16.552,16.552s7.41,16.552,16.552,16.552h138.483
			c9.148,0,16.552-7.41,16.552-16.552S283.071,249.379,273.929,249.379z"/>
	</g>
</g>
<g>
	<g>
		<path d="M347.86,291.862c-51.719,0-93.793,42.074-93.793,93.793s42.074,93.793,93.793,93.793s93.793-42.074,93.793-93.793
			S399.578,291.862,347.86,291.862z M347.86,446.345c-33.462,0-60.69-27.228-60.69-60.69s27.228-60.69,60.69-60.69
			s60.69,27.228,60.69,60.69C408.549,419.117,381.322,446.345,347.86,446.345z"/>
	</g>
</g>
<g>
	<g>
		<path d="M469.851,483.691l-55.172-54.615c-6.499-6.433-16.971-6.389-23.404,0.116c-6.439,6.499-6.383,16.977,0.116,23.404
			l55.172,54.615c3.228,3.194,7.432,4.789,11.641,4.789c4.259,0,8.524-1.639,11.763-4.905
			C476.406,500.596,476.351,490.119,469.851,483.691z"/>
	</g>
</g>
<g>
</g>
<g>
</g>
<g>
</g>
<g>
</g>
<g>
</g>
<g>
</g>
<g>
</g>
<g>
</g>
<g>
</g>
<g>
</g>
<g>
</g>
<g>
</g>
<g>
</g>
<g>
</g>
<g>
</g>
</svg>
