<svg id="Flat" height="512" viewBox="0 0 512 512" width="512" xmlns="http://www.w3.org/2000/svg"><g fill="#8690fa"><path d="m71.072 303.9a189.244 189.244 0 0 0 66.661 97.518 186.451 186.451 0 0 0 114.189 38.582c103.707 0 188.078-84.284 188.078-187.884a185.963 185.963 0 0 0 -38.974-114.534 189.368 189.368 0 0 0 -98.448-66.463 24 24 0 1 1 12.883-46.238 237.668 237.668 0 0 1 123.578 83.392 235.9 235.9 0 0 1 -187.117 379.727 234.064 234.064 0 0 1 -143.342-48.444 237.546 237.546 0 0 1 -83.652-122.438z"/><circle cx="200" cy="48" r="24"/><circle cx="56" cy="192" r="24"/><circle cx="109" cy="101" r="24"/></g><path d="m48 480a24 24 0 0 1 -24-24v-144a24 24 0 0 1 29.206-23.429l144 32a24 24 0 1 1 -10.412 46.858l-114.794-25.51v114.081a24 24 0 0 1 -24 24z" fill="#5153ff"/></svg>