<?xml version="1.0" encoding="iso-8859-1"?>
<!-- Generator: Adobe Illustrator 19.0.0, SVG Export Plug-In . SVG Version: 6.00 Build 0)  -->
<svg version="1.1" id="Layer_1" xmlns="http://www.w3.org/2000/svg" xmlns:xlink="http://www.w3.org/1999/xlink" x="0px" y="0px"
	 viewBox="0 0 512 512" style="enable-background:new 0 0 512 512;" xml:space="preserve">
<g>
	<polygon style="fill:#88888F;" points="206.365,165.199 206.365,305.528 346.693,305.528 346.693,256 255.893,256 255.893,165.199 
			"/>
	<path style="fill:#88888F;" d="M511.957,185.213L512,15.045l-67.587,67.587l-7.574-7.574
		c-48.332-48.332-112.593-74.95-180.946-74.95C114.792,0.107,0,114.901,0,256s114.792,255.893,255.893,255.893
		S511.785,397.099,511.785,256h-49.528c0,113.79-92.575,206.365-206.365,206.365S49.528,369.79,49.528,256
		S142.103,49.635,255.893,49.635c55.124,0,106.947,21.467,145.925,60.445l7.574,7.574l-67.58,67.58L511.957,185.213z"/>
</g>
<g>
	<path style="fill:#56545A;" d="M255.893,462.365v49.528c141.101,0,255.893-114.793,255.893-255.893h-49.528
		C462.258,369.79,369.682,462.365,255.893,462.365z"/>
	<path style="fill:#56545A;" d="M444.413,82.632l-7.574-7.574c-48.332-48.332-112.593-74.95-180.946-74.95v49.528
		c55.124,0,106.947,21.467,145.925,60.445l7.574,7.574l-67.58,67.58l170.147-0.021L512,15.045L444.413,82.632z"/>
	<rect x="255.893" y="255.992" style="fill:#56545A;" width="90.801" height="49.528"/>
</g>
<g>
</g>
<g>
</g>
<g>
</g>
<g>
</g>
<g>
</g>
<g>
</g>
<g>
</g>
<g>
</g>
<g>
</g>
<g>
</g>
<g>
</g>
<g>
</g>
<g>
</g>
<g>
</g>
<g>
</g>
</svg>
